<?xml version="1.0" encoding="UTF-8"?>
<!DOCTYPE svg PUBLIC "-//W3C//DTD SVG 1.0//EN" "http://www.w3.org/TR/2001/REC-SVG-20010904/DTD/svg10.dtd">
<!-- Creator: CorelDRAW 2018 (64-Bit Evaluation Version) -->
<svg xmlns="http://www.w3.org/2000/svg" xml:space="preserve" width="21.7984mm" height="8.5233mm" version="1.0" style="shape-rendering:geometricPrecision; text-rendering:geometricPrecision; image-rendering:optimizeQuality; fill-rule:evenodd; clip-rule:evenodd"
viewBox="0 0 116.52 45.56"
 xmlns:xlink="http://www.w3.org/1999/xlink">
 <defs>
  <style type="text/css">
   <![CDATA[
    .str0 {stroke:#006FB1;stroke-width:1.07;stroke-miterlimit:22.9256}
    .fil1 {fill:#FEFEFE}
    .fil0 {fill:#006FB1}
   ]]>
  </style>
 </defs>
 <g id="Layer_x0020_1">
  <metadata id="CorelCorpID_0Corel-Layer"/>
  <g id="_1348645670272">
   <path class="fil0 str0" d="M115.99 30.88c0,7.96 -6.19,14.15 -14.15,14.15 -30.87,0 -101.08,0 -101.08,0l15.95 -44.49 99.28 0c0,0 0,17.34 0,30.34z"/>
   <path class="fil1" d="M111.03 5.28l0 6.45 -10.44 -0.05 -1.18 5.26c0.23,0 0.45,0 0.63,0 3.07,0 5.97,1.26 8.14,3.49 1.08,1.12 1.94,2.47 2.53,3.98 0.54,1.51 0.86,2.47 0.86,4.07 0,3.16 -1.22,6.17 -3.39,8.45 -1.08,1.12 -2.35,1.99 -3.75,2.62 -1.36,0.53 -2.85,0.73 -4.39,0.73 -1.46,0 -2.85,-0.23 -4.13,-0.7l-2.74 -7.63 1.81 -1.38 0.63 0.97c1.04,1.55 2.67,2.57 4.43,2.57 2.89,0 5.38,-2.62 5.38,-5.63 0,-3.16 -2.49,-5.24 -5.38,-5.24 -0.81,0 -1.63,0.29 -2.4,0.73l-0.41 0.19 -4.92 -3.74 3.57 -15.15 15.14 0zm-53.47 34.6l-6.05 0 0 -9.28 -12.29 -0.02 -2.26 -6.42 15.05 -18.84 5.55 0 0 18.84 5.23 0 -2.25 6.44 -0.15 0 -2.83 0 0 9.28zm10.42 0l-6.46 0 12.39 -34.55 5.47 0 10.44 29.03 0.03 -0.03 0.06 0.17 -0.09 -0.14 1.99 5.52 -6.51 0 -3.3 -9.32 -10.67 0 -3.35 9.32zm-29.68 0l-6.51 0 -3.3 -9.32 -10.67 0 -3.35 9.32 -6.46 0 12.39 -34.55 5.47 0 12.43 34.55zm13.2 -15.72l0 -7.53 -5.74 7.53 5.74 0zm28.14 -0l-2.98 -8.4 -2.98 8.4 5.97 0zm-53.5 0l-2.98 -8.4 -2.98 8.4 5.97 0z"/>
  </g>
 </g>
</svg>
